<svg xmlns="http://www.w3.org/2000/svg" xmlns:xlink="http://www.w3.org/1999/xlink" width="1080" zoomAndPan="magnify" viewBox="0 0 810 691.499984" height="922" preserveAspectRatio="xMidYMid meet" version="1.0"><defs><clipPath id="cb1f172cd4"><path d="M 1 1 L 809.707031 1 L 809.707031 691 L 1 691 Z M 1 1 " clip-rule="nonzero"/></clipPath></defs><path fill="#ffffff" d="M 514.179688 503.539062 C 511.019531 496.195312 507.378906 488.792969 503.261719 484.195312 C 486.371094 479.179688 485.058594 486.222656 486.25 503.359375 C 486.90625 516.019531 488.519531 530.050781 495.023438 541.335938 C 499.441406 544.679688 505.410156 543.1875 510.71875 541.574219 C 510.898438 541.574219 511.316406 541.515625 511.554688 541.457031 C 511.792969 540.859375 527.964844 530.53125 516.6875 509.09375 C 515.195312 506.226562 514.480469 504.4375 514.179688 503.539062 Z M 514.179688 503.539062 " fill-opacity="1" fill-rule="nonzero"/><path fill="#ffffff" d="M 648.097656 188.386719 C 647.742188 181.222656 646.964844 173.878906 644.757812 168.742188 C 630.734375 159.191406 627.03125 164.683594 622.019531 179.371094 C 618.140625 190.179688 614.621094 202.421875 616.707031 213.945312 C 619.632812 218.125 625.777344 218.78125 631.269531 219.140625 C 631.449219 219.199219 631.867188 219.257812 632.046875 219.320312 C 632.523438 218.902344 651.261719 215.378906 648.335938 193.820312 C 648.039062 190.894531 647.980469 189.222656 648.097656 188.386719 Z M 648.097656 188.386719 " fill-opacity="1" fill-rule="nonzero"/><g clip-path="url(#cb1f172cd4)"><path fill="#ffffff" d="M 809.230469 380 C 809.050781 377.492188 808.753906 371.164062 808.515625 365.96875 C 807.976562 351.21875 806.960938 339.933594 805.230469 328.886719 C 801.171875 302.554688 793.714844 282.613281 784.164062 272.460938 C 782.792969 271.027344 782.375 270.25 781.835938 268.160156 C 777.183594 251.144531 769.363281 236.214844 758.980469 224.335938 C 755.757812 220.632812 754.386719 219.558594 748.953125 216.273438 C 744.65625 213.707031 744.777344 213.886719 744.71875 209.289062 C 744.539062 197.464844 740.300781 183.433594 733.378906 171.667969 C 724.488281 156.621094 708.96875 141.695312 692.261719 132.082031 C 690.410156 131.007812 688.800781 130.109375 688.738281 130.050781 C 688.679688 129.992188 688.382812 128.796875 688.023438 127.425781 C 686.890625 122.945312 683.308594 116.734375 679.132812 111.78125 C 677.9375 110.40625 675.074219 107.300781 672.804688 104.972656 C 670 102.105469 667.792969 99.417969 666.0625 96.792969 C 652.933594 76.910156 630.972656 59.953125 602.148438 47.351562 C 587.046875 40.785156 569.324219 35.113281 553.03125 31.707031 C 549.929688 31.050781 547.71875 30.335938 545.394531 29.261719 C 534.410156 24.125 518.417969 19.289062 505.289062 17.199219 C 495.144531 15.527344 481.238281 14.75 473.898438 15.40625 L 469.960938 15.765625 L 466.378906 13.972656 C 453.847656 7.644531 440.65625 3.644531 426.574219 2.03125 C 411.175781 0.242188 393.75 1.554688 378.710938 5.554688 L 376.265625 6.210938 L 371.550781 5.4375 C 362.957031 4.003906 355.257812 3.464844 345.171875 3.703125 C 333.832031 3.941406 326.253906 4.777344 316.347656 6.808594 C 308.054688 8.480469 300.054688 10.75 293.253906 13.316406 C 290.03125 14.511719 289.910156 14.511719 287.285156 14.214844 C 278.511719 13.136719 264.308594 12.839844 255.535156 13.554688 C 234.945312 15.167969 216.445312 20.304688 198.363281 29.320312 C 185.59375 35.53125 174.96875 42.636719 165.601562 51.113281 C 162.976562 53.503906 162.617188 53.742188 161.664062 53.5625 C 150.441406 51.234375 138.386719 54.757812 123.171875 64.847656 C 110.9375 72.96875 96.972656 85.6875 83.960938 100.496094 C 77.992188 107.300781 57.761719 126.46875 54.480469 128.320312 C 50.78125 130.46875 46.425781 133.992188 42.84375 137.574219 C 32.519531 147.964844 23.6875 163.371094 17.898438 180.804688 C 16.765625 184.207031 15.867188 186.058594 13.660156 189.761719 C 8.886719 197.644531 5.425781 205.464844 3.457031 212.808594 C 2.621094 215.855469 2.558594 216.75 2.5 222.484375 C 2.5 228.214844 2.558594 229.050781 3.277344 231.378906 C 4.292969 234.605469 5.425781 236.875 7.15625 239.203125 L 8.527344 241.054688 L 7.929688 242.128906 C 4.292969 248.277344 2.621094 252.816406 1.785156 258.726562 C 0.292969 268.9375 2.738281 280.761719 8.886719 293.179688 C 13.542969 302.554688 20.582031 312.824219 26.96875 319.394531 C 28.402344 320.886719 29.773438 322.5 29.953125 323.035156 C 30.132812 323.511719 30.667969 325.960938 31.207031 328.46875 C 32.398438 334.558594 34.011719 339.277344 37.054688 345.488281 C 41.171875 354.023438 45.886719 360.414062 53.285156 367.640625 C 60.269531 374.445312 67.550781 379.761719 77.335938 385.253906 C 92.4375 393.734375 113.441406 400.898438 134.210938 404.660156 L 141.074219 405.914062 L 141.671875 407.765625 C 143.222656 412.722656 146.800781 417.914062 152.769531 423.648438 L 154.917969 425.679688 L 155.335938 429.917969 C 155.636719 433.203125 155.992188 434.753906 156.769531 436.722656 C 157.785156 439.230469 157.785156 439.410156 157.425781 441.621094 C 156.113281 449.679688 158.679688 456.488281 166.136719 464.429688 C 171.03125 469.625 176.640625 473.804688 185.890625 479.058594 C 189.710938 481.269531 192.753906 483.296875 195.859375 485.867188 C 212.148438 499.179688 231.84375 509.871094 250.34375 515.484375 C 254.820312 516.855469 263.414062 518.945312 267.652344 519.664062 C 277.140625 521.335938 279.882812 521.574219 293.433594 521.632812 C 300.59375 521.632812 309.722656 521.8125 313.722656 521.929688 C 319.390625 522.109375 322.375 522.050781 326.910156 521.632812 C 337.652344 520.617188 353.167969 518.109375 367.3125 515.183594 C 370.835938 514.46875 373.101562 514.109375 373.339844 514.289062 C 373.578125 514.46875 373.996094 515.304688 374.355469 516.199219 C 376.027344 520.617188 380.679688 529.335938 384.5 535.066406 C 391.363281 545.398438 401.746094 556.324219 410.519531 562.476562 C 412.726562 564.027344 413.382812 564.742188 415.414062 567.847656 C 419.589844 574.296875 441.136719 611.617188 443.042969 615.675781 C 444.058594 617.828125 448.355469 626.125 452.535156 634.066406 C 457.488281 643.382812 460.648438 649.769531 461.484375 652.160156 C 466.558594 666.25 473.601562 676.640625 482.433594 683.148438 C 490.070312 688.761719 499.382812 691.507812 508.808594 689.539062 C 512.75 688.703125 516.628906 686.492188 518.417969 682.851562 C 523.492188 672.640625 512.988281 652.457031 509.40625 642.84375 C 504.394531 629.289062 502.664062 622.84375 504.035156 622.84375 C 504.335938 622.84375 507.078125 623.5 510.121094 624.214844 C 516.808594 625.886719 527.667969 628.097656 531.605469 628.632812 C 533.160156 628.8125 539.1875 628.992188 544.855469 628.933594 C 554.644531 628.871094 555.71875 628.933594 563.59375 629.949219 C 579.828125 632.039062 588.660156 631.203125 615.394531 624.992188 C 626.136719 622.542969 631.148438 621.109375 637.894531 618.664062 C 656.335938 611.976562 671.015625 602.421875 681.339844 590.539062 C 688.621094 582.121094 692.140625 575.371094 693.453125 567.191406 C 693.871094 564.566406 693.871094 564.566406 696.4375 561.9375 C 699.363281 558.953125 701.691406 555.128906 702.585938 551.785156 C 702.941406 550.53125 703.597656 547.25 704.015625 544.441406 C 704.851562 539.425781 704.851562 539.425781 704.195312 536.917969 C 703.183594 532.859375 701.867188 526.589844 702.046875 526.351562 C 702.109375 526.230469 705.75 526.109375 710.105469 526.109375 C 718.578125 526.109375 725.324219 525.574219 731.230469 524.4375 C 741.851562 522.347656 751.640625 518.707031 759.9375 513.632812 C 788.878906 496.015625 805.769531 460.132812 809.050781 409.4375 C 809.648438 402.6875 809.707031 386.03125 809.230469 380 Z M 164.347656 161.339844 C 164.050781 168.984375 162.738281 176.566406 162.617188 184.089844 C 162.4375 188.566406 163.453125 195.734375 163.214844 201.34375 C 163.035156 209.644531 161.839844 220.574219 161.363281 231.617188 C 160.527344 250.964844 160.828125 271.027344 159.335938 293.238281 C 158.738281 302.972656 157.722656 380.238281 156.410156 384.597656 C 156.171875 385.253906 155.039062 388.359375 155.039062 389.074219 C 152.414062 397.554688 145.550781 396.835938 138.386719 392.777344 C 135.464844 391.164062 131.347656 389.136719 129.613281 386.148438 C 128.0625 382.867188 126.929688 310.914062 126.871094 302.855469 C 126.273438 285.238281 128.601562 259.382812 128.539062 242.128906 C 128.601562 235.976562 127.824219 231.917969 127.824219 227.976562 C 127.765625 215.617188 131.347656 187.613281 124.542969 189.882812 C 121.5 191.015625 119.53125 198.359375 117.261719 204.808594 C 115.171875 210.898438 113.203125 217.347656 111.949219 221.527344 C 107.890625 234.066406 104.429688 245.828125 99.957031 250.488281 C 88.734375 254.367188 81.695312 244.097656 80.140625 242.84375 C 78.769531 241.53125 75.488281 227.378906 73.816406 228.097656 C 69.042969 230.1875 65.699219 252.339844 63.789062 259.800781 C 61.878906 266.847656 61.164062 275.507812 60.089844 286.132812 C 59.136719 295.210938 59.792969 304.945312 57.703125 310.496094 C 55.316406 317.421875 47.320312 320.410156 41.769531 316.109375 C 39.917969 314.617188 38.546875 312.527344 37.234375 310.496094 C 36.21875 308.882812 35.203125 307.273438 34.785156 305.421875 C 34.308594 302.972656 33.652344 286.730469 32.519531 281.238281 C 31.324219 275.445312 32.21875 270.609375 32.996094 264.816406 C 34.25 255.445312 35.5625 246.128906 36.578125 236.753906 C 37.292969 230.246094 38.007812 222.183594 39.800781 212.390625 C 39.980469 210.542969 40.992188 206.601562 41.828125 203.136719 C 42.664062 199.496094 43.023438 196.03125 43.796875 193.644531 C 47.082031 184.386719 56.449219 168.503906 63.433594 163.726562 C 66.058594 161.878906 68.207031 163.488281 70.953125 164.5625 C 71.429688 164.863281 72.621094 164.027344 73.277344 164.445312 C 73.757812 164.804688 73.875 165.996094 74.472656 166.414062 C 76.5625 167.96875 78.648438 169.519531 81.515625 170.953125 C 82.171875 171.550781 83.425781 170.953125 84.082031 171.3125 C 84.917969 172.265625 85.511719 173.402344 86.347656 174.65625 C 87.78125 176.804688 89.929688 180.027344 93.925781 177.761719 C 100.3125 174.296875 104.96875 163.667969 108.609375 154.175781 C 109.027344 153.039062 108.90625 151.785156 109.503906 150.53125 C 109.742188 149.816406 110.636719 149.160156 110.875 148.441406 C 111.292969 147.308594 111.175781 146.054688 111.59375 144.917969 C 111.949219 144.382812 112.90625 143.367188 113.144531 142.949219 C 113.800781 140.800781 113.859375 138.53125 114.695312 136.558594 C 116.902344 131.007812 121.5 122.648438 124.960938 114.46875 C 127.644531 108.019531 128.78125 102.703125 132.359375 96.851562 C 140.117188 83.894531 153.726562 79.476562 162.019531 80.96875 C 164.945312 89.328125 164.585938 103.0625 164.527344 118.230469 C 164.644531 131.304688 164.824219 146.472656 164.347656 161.339844 Z M 473.421875 49.261719 C 473.421875 48.90625 474.792969 48.726562 475.03125 48.367188 C 476.285156 44.605469 480.105469 38.277344 484.460938 36.84375 C 486.074219 36.007812 488.757812 36.84375 491.027344 36.484375 C 492.875 36.066406 495.382812 34.753906 496.753906 34.992188 C 501.289062 35.113281 506.125 37.859375 511.496094 38.992188 C 522.894531 41.441406 535.546875 44.246094 547.601562 48.128906 C 554.164062 50.398438 560.253906 52.667969 565.625 55.175781 C 571.472656 57.445312 576.722656 58.039062 580.304688 62.699219 C 581.617188 71.773438 582.214844 82.164062 580.664062 91.539062 C 579.410156 99.957031 575.648438 109.691406 572.070312 115.242188 C 564.3125 118.347656 555.777344 113.152344 546.289062 110.945312 C 538.828125 115.722656 538.828125 130.527344 538.171875 142.648438 C 537.753906 149.753906 537.335938 157.519531 536.917969 164.980469 C 536.5 171.730469 535.308594 178.058594 534.949219 184.449219 C 534.769531 190.894531 535.484375 197.464844 535.308594 204.273438 C 534.769531 224.273438 533.578125 293.539062 531.726562 312.050781 C 530.53125 325.183594 531.308594 371.820312 527.90625 382.03125 C 520.328125 387.402344 505.648438 382.984375 500.871094 376.953125 C 496.816406 354.203125 498.484375 240.515625 500.15625 205.585938 C 501.648438 180.746094 504.394531 152.742188 501.945312 128.082031 C 501.648438 124.5 501.410156 120.617188 500.8125 119.125 C 498.425781 113.511719 493.175781 113.453125 488.398438 110.707031 C 486.667969 109.75 484.28125 108.792969 482.132812 107.421875 C 480.402344 106.527344 476.941406 103.597656 476.523438 102.882812 C 473.121094 97.867188 472.347656 87.058594 471.75 77.625 C 471.09375 67.953125 470.914062 56.488281 473.421875 49.261719 Z M 182.3125 257.832031 C 182.730469 235.5 183.683594 215.019531 183.804688 193.105469 C 184.101562 175.253906 181.894531 162.296875 186.785156 147.726562 C 186.488281 142.410156 185.773438 137.277344 185.710938 131.902344 C 185.710938 124.976562 186.308594 115.660156 187.503906 107.003906 C 188.160156 102.046875 190.425781 95.539062 191.324219 89.804688 C 192.753906 81.984375 192.335938 74.820312 193.886719 70.402344 C 193.886719 70.101562 198.484375 60.488281 199.917969 58.578125 C 200.871094 57.203125 203.316406 55.773438 204.988281 53.800781 C 206.601562 52.128906 208.03125 49.261719 208.269531 48.785156 C 209.167969 48.070312 217.9375 43.710938 218.835938 43.351562 C 221.519531 42.277344 224.445312 41.382812 227.785156 40.785156 C 230.472656 40.425781 233.097656 41.140625 236.019531 40.425781 C 252.253906 36.367188 277.019531 24.960938 283.105469 26.8125 C 287.34375 28.304688 290.507812 35.707031 293.015625 40.722656 C 293.132812 61.863281 292.953125 77.207031 287.34375 91.539062 C 274.394531 100.972656 251.835938 99.0625 241.390625 111.542969 C 233.871094 120.378906 229.753906 136.976562 234.886719 153.21875 C 243.71875 159.191406 266.335938 150.710938 274.394531 158.832031 C 277.078125 169.820312 276.902344 179.730469 274.632812 189.105469 C 273.023438 195.433594 270.632812 200.75 266.160156 203.316406 C 258.996094 207.078125 241.691406 205.527344 233.8125 208.871094 C 228.261719 211.199219 221.042969 220.511719 220.503906 230.066406 C 220.207031 237.886719 222.355469 241.828125 225.757812 245.710938 C 226.472656 246.664062 227.964844 248.996094 228.441406 249.351562 C 234.53125 253.832031 252.789062 253.175781 262.816406 254.367188 C 273.320312 255.863281 284.0625 254.191406 290.507812 260.757812 C 291.34375 265.175781 295.101562 270.371094 295.222656 276.699219 C 295.28125 279.6875 294.148438 295.269531 292.058594 299.628906 C 286.867188 310.617188 265.980469 308.046875 254.640625 309.0625 C 245.6875 309.480469 225.636719 308.765625 214.238281 308.765625 C 206.0625 309.183594 204.09375 310.734375 197.886719 305.898438 C 197.648438 305.539062 197.410156 303.570312 197.171875 303.570312 C 196.695312 303.210938 195.679688 303.867188 195.441406 303.511719 C 194.960938 303.152344 194.722656 301.179688 194.484375 301.179688 C 182.011719 293.417969 181.894531 281.777344 182.3125 257.832031 Z M 320.703125 497.75 C 314.914062 497.332031 309.367188 496.914062 303.578125 496.433594 C 301.128906 494.40625 298.5625 491.898438 296.175781 489.210938 C 294.027344 486.761719 291.285156 484.3125 289.96875 481.328125 C 288.65625 478.105469 288.71875 473.625 287.285156 469.085938 C 285.851562 464.550781 283.464844 460.011719 282.152344 456.011719 C 280.0625 449.324219 280.0625 442.097656 276.363281 436.605469 C 263.652344 434.457031 250.882812 435.410156 241.75 439.351562 C 238.945312 440.484375 235.542969 441.5625 233.933594 443.472656 C 231.664062 445.917969 231.1875 450.515625 230.828125 454.816406 C 229.574219 463.832031 231.785156 473.566406 233.15625 486.105469 C 227.785156 488.671875 213.34375 487.121094 205.585938 482.402344 C 197.945312 470.402344 196.214844 457.503906 192.8125 444.488281 C 190.070312 433.378906 185.535156 421.976562 183.027344 410.632812 C 181.59375 404.78125 181.59375 398.75 180.28125 392.71875 C 178.847656 386.210938 175.746094 379.699219 174.910156 373.789062 C 173.480469 365.90625 174.792969 358.144531 174.433594 351.039062 C 180.042969 343.15625 200.691406 340.054688 209.761719 347.097656 C 214.714844 359.9375 214.65625 368.59375 219.132812 382.269531 C 221.101562 388.121094 223.011719 394.089844 227.605469 397.195312 C 228.859375 398.152344 229.816406 398.449219 231.84375 399.167969 C 233.039062 399.703125 235.246094 401.015625 236.082031 401.195312 C 239.125 401.675781 242.40625 400.480469 246.464844 400.0625 C 254.9375 398.6875 259.414062 397.972656 264.011719 393.375 C 265.023438 392.417969 265.503906 391.523438 266.21875 390.210938 C 268.308594 386.566406 268.425781 385.253906 268.246094 379.042969 C 268.070312 371.101562 265.261719 360.355469 263.710938 350.203125 C 261.863281 337.367188 260.371094 331.097656 271.46875 326.796875 C 278.632812 323.871094 289.074219 325.664062 291.699219 328.648438 C 293.847656 331.335938 295.460938 339.335938 297.132812 345.605469 C 308.351562 388.179688 317.960938 435.886719 327.984375 482.34375 C 326.074219 488.015625 324.40625 493.925781 320.703125 497.75 Z M 342.546875 300.34375 C 341.769531 301.0625 340.039062 303.691406 338.25 304.40625 C 335.445312 304.765625 332.582031 302.914062 329.476562 301.480469 C 326.792969 300.40625 324.046875 301.480469 321.839844 297.480469 C 318.199219 281.417969 318.496094 254.070312 318.675781 231.378906 C 318.675781 188.925781 316.765625 126.589844 315.332031 83.777344 C 314.796875 70.222656 312.707031 61.382812 314.738281 50.335938 C 316.40625 41.558594 322.078125 29.796875 326.972656 25.675781 C 337.59375 16.480469 345.769531 30.335938 352.09375 42.457031 C 356.808594 51.351562 360.390625 60.789062 364.089844 69.863281 C 367.851562 79.355469 371.550781 89.6875 375.011719 99.300781 C 376.863281 104.851562 378.234375 110.464844 380.085938 115.660156 C 383.484375 125.335938 388.558594 132.378906 387.542969 145.574219 C 388.199219 149.695312 389.929688 147.007812 391.484375 149.277344 C 392.378906 151.128906 392.378906 154.53125 393.035156 156.445312 C 394.765625 160.207031 396.316406 163.96875 397.808594 168.445312 C 400.613281 177.101562 402.34375 188.03125 409.386719 189.164062 C 413.027344 186.539062 413.683594 177.460938 414.101562 171.429688 C 414.578125 163.488281 414.398438 154.414062 414.160156 146.53125 C 413.742188 135.605469 412.667969 129.15625 412.726562 115.183594 C 412.789062 101.210938 411.953125 72.492188 412.90625 52.128906 C 413.382812 38.574219 414.101562 29.855469 419.589844 24.722656 C 420.964844 23.648438 424.1875 21.078125 424.664062 20.722656 C 434.988281 17.675781 446.207031 30.273438 448.894531 42.875 C 450.386719 49.382812 450.144531 61.382812 450.144531 73.027344 C 449.3125 130.050781 449.667969 189.703125 446.984375 242.902344 C 445.730469 264.996094 444.359375 285.597656 437.078125 296.105469 C 422.457031 298.316406 415.832031 299.089844 406.9375 287.746094 C 406.105469 286.613281 405.089844 283.207031 404.074219 282.433594 C 403.476562 281.65625 401.449219 281.65625 401.03125 280.941406 C 400.851562 280.582031 401.210938 278.671875 401.03125 278.3125 C 400.433594 277.179688 399.421875 277.953125 398.761719 276.820312 C 396.078125 271.921875 393.988281 264.757812 391.304688 259.085938 C 388.796875 253.832031 385.875 248.933594 382.890625 244.097656 C 380.382812 239.621094 377.578125 233.648438 374.355469 227.679688 C 370.953125 221.347656 368.089844 216.570312 363.492188 217.050781 C 354.898438 218.484375 355.734375 236.394531 353.824219 251.382812 C 353.109375 256.28125 352.691406 263.386719 351.976562 268.9375 C 351.261719 274.191406 350.601562 280.164062 349.351562 286.492188 C 348.632812 290.195312 347.558594 295.808594 345.230469 298.792969 C 344.574219 299.925781 343.5625 299.210938 342.546875 300.34375 Z M 435.585938 367.9375 C 423.949219 372 405.328125 368.117188 395.898438 373.847656 C 389.335938 377.910156 385.335938 387.285156 388.796875 397.496094 C 395.363281 401.972656 413.265625 399.105469 418.695312 404.242188 C 419.652344 410.570312 418.636719 416.066406 416.070312 421.140625 C 414.339844 424.601562 412.132812 427.46875 408.730469 428.664062 C 403.359375 430.515625 391.183594 428.664062 385.394531 430.097656 C 381.398438 431.113281 375.90625 436.1875 375.191406 441.917969 C 374.714844 446.578125 376.027344 449.023438 378.175781 451.472656 C 378.59375 452.070312 379.488281 453.503906 379.785156 453.683594 C 383.546875 456.546875 395.601562 456.546875 402.105469 457.324219 C 408.847656 458.339844 416.011719 457.503906 419.472656 461.207031 C 419.472656 463.652344 421.320312 466.519531 420.664062 469.984375 C 420.367188 471.59375 417.859375 480.132812 416.011719 482.582031 C 411.652344 488.671875 399.421875 487.65625 392.496094 488.492188 C 387.125 488.910156 375.191406 488.910156 368.445312 489.089844 C 363.554688 489.507812 362.359375 490.523438 358.777344 487.65625 C 358.660156 487.476562 358.539062 486.222656 358.363281 486.222656 C 358.0625 486.046875 357.464844 486.402344 357.347656 486.222656 C 357.046875 486.046875 356.929688 484.792969 356.808594 484.792969 C 349.351562 480.132812 349.230469 472.550781 349.230469 457.324219 C 349.230469 443.054688 349.589844 430.035156 349.289062 416.003906 C 349.113281 404.601562 347.082031 395.824219 350.664062 387.285156 C 350.304688 383.820312 349.527344 380.359375 349.351562 376.894531 C 349.171875 372.417969 349.351562 366.503906 350.183594 361.191406 C 350.601562 358.144531 352.453125 354.441406 353.050781 351.039062 C 354.125 346.382812 353.527344 341.664062 354.839844 339.21875 C 354.839844 339.039062 358.898438 334.140625 360.152344 333.304688 C 360.988281 332.707031 363.316406 332.46875 364.808594 331.695312 C 366.296875 331.097656 367.613281 329.664062 367.851562 329.425781 C 368.6875 329.246094 376.980469 328.828125 377.875 328.828125 C 380.441406 328.828125 383.1875 329.007812 386.289062 329.425781 C 388.796875 329.84375 391.242188 330.859375 393.988281 331.035156 C 409.265625 332.230469 432.839844 329.84375 438.269531 331.632812 C 442.03125 333.066406 444.117188 337.546875 445.847656 340.589844 C 443.703125 352.292969 441.910156 360.652344 435.585938 367.9375 Z M 573.320312 616.15625 C 570.933594 615.199219 570.515625 615.019531 568.726562 613.230469 C 567.292969 611.914062 566.460938 609.765625 564.90625 607.855469 C 564.609375 607.617188 563.414062 607.734375 563.355469 607.4375 C 562.996094 606.960938 563.058594 605.707031 562.699219 605.226562 C 562.164062 604.808594 560.96875 604.210938 560.609375 603.734375 C 559.417969 601.644531 558.761719 598.777344 557.269531 597.105469 C 556.015625 595.675781 549.449219 590.359375 547.601562 589.582031 C 545.511719 588.867188 542.765625 589.523438 539.78125 589.34375 C 537.394531 588.984375 535.007812 587.375 533.160156 587.492188 C 530.414062 587.492188 526.535156 590.0625 522.773438 591.015625 C 522.953125 590.957031 521.820312 589.285156 521.699219 590.300781 C 521.164062 592.75 515.078125 592.269531 511.914062 593.761719 C 505.167969 597.523438 500.335938 605.40625 498.964844 615.078125 C 497.890625 624.273438 500.394531 642.367188 495.261719 648.339844 C 493.234375 650.609375 487.207031 652.875 482.253906 653.175781 C 477.777344 652.9375 474.375 652.28125 469.960938 646.128906 C 467.273438 640.933594 467.8125 635.738281 466.855469 630.722656 C 466.082031 627.558594 464.648438 624.992188 464.050781 621.707031 C 463.277344 617.765625 462.140625 609.40625 461.007812 602.242188 C 458.980469 590.835938 457.25 579.074219 456.175781 568.328125 C 455.875 566.59375 455.21875 563.789062 454.921875 562.058594 C 453.785156 550.652344 454.621094 541.933594 452.773438 528.796875 C 452.234375 526.410156 452.054688 524.320312 451.878906 523.664062 C 451.160156 517.75 450.980469 508.4375 448 500.078125 C 448.894531 490.703125 447.339844 482.640625 447.699219 472.910156 C 447.878906 470.582031 448.953125 468.191406 448.832031 465.566406 C 448.535156 462.28125 446.683594 458.339844 446.207031 454.699219 C 446.089844 452.070312 446.328125 449.144531 446.207031 446.515625 C 445.910156 438.039062 445.789062 430.335938 446.148438 421.796875 C 446.386719 419.585938 447.164062 417.796875 447.582031 415.289062 C 447.9375 409.078125 446.625 403.046875 448.773438 400.597656 C 452.117188 396.660156 467.511719 398.6875 477.242188 402.269531 C 478.730469 402.867188 480.523438 404.660156 482.074219 405.554688 C 492.9375 410.929688 498.007812 415.230469 505.828125 428.363281 C 507.019531 430.214844 507.914062 432.007812 509.109375 433.859375 C 511.199219 437.5 514.480469 443.710938 516.984375 448.128906 C 522.296875 457.027344 527.191406 463.832031 531.488281 472.3125 C 532.382812 473.984375 533.039062 476.191406 533.816406 477.625 C 535.367188 480.195312 537.992188 482.042969 539.605469 484.851562 C 542.050781 489.03125 543.902344 494.105469 545.871094 498.703125 C 548.078125 503.539062 549.273438 507.839844 551.242188 512.378906 C 553.03125 516.378906 556.550781 521.394531 558.820312 525.871094 C 560.015625 527.960938 560.550781 531.902344 562.339844 535.246094 C 563.714844 537.8125 565.503906 539.066406 567.355469 541.816406 C 568.546875 543.84375 569.621094 546.890625 570.933594 549.160156 C 576.1875 558.117188 580.542969 568.328125 586.210938 578.597656 C 589.136719 583.792969 592.121094 588.390625 593.074219 592.390625 C 595.941406 604.691406 585.617188 620.453125 573.320312 616.15625 Z M 570.636719 520.199219 C 568.667969 517.8125 566.101562 516.738281 564.070312 512.496094 C 562.519531 509.273438 561.625 504.375 560.789062 499.480469 C 557.148438 479.894531 556.074219 459.535156 553.089844 438.335938 C 550.347656 419.167969 548.855469 398.332031 546.527344 376.238281 C 545.332031 364.832031 543.902344 352.890625 544.496094 345.726562 C 544.558594 344.652344 546.109375 339.277344 546.707031 337.066406 C 547.78125 333.785156 549.390625 331.035156 550.464844 329.84375 C 554.582031 325.722656 563.652344 327.394531 569.324219 329.960938 C 571.589844 333.125 572.84375 338.261719 575.113281 341.726562 C 578.273438 370.027344 577.378906 396.121094 582.15625 426.574219 C 582.871094 431.46875 584.242188 436.605469 585.078125 442.574219 C 585.078125 442.574219 585.734375 449.085938 585.855469 450.097656 C 587.046875 457.863281 586.988281 469.148438 590.808594 472.429688 C 595.046875 476.433594 605.964844 468.96875 611.695312 472.3125 C 612.230469 472.492188 612.589844 474.34375 613.1875 474.761719 C 613.425781 475.238281 614.976562 475.355469 615.214844 475.597656 C 615.871094 476.550781 616.46875 479.117188 617.007812 481.207031 C 617.542969 483 618.675781 485.210938 618.796875 486.820312 C 619.992188 492.972656 618.738281 499.71875 619.574219 505.628906 C 613.066406 522.589844 587.644531 516.320312 570.636719 520.199219 Z M 688.859375 362.683594 C 688.320312 372.65625 685.933594 384.777344 683.308594 392.179688 C 677.222656 398.089844 670.121094 394.746094 662.480469 394.746094 C 656.753906 401.734375 657.46875 417.617188 657.46875 430.871094 C 657.46875 438.636719 657.46875 447.054688 657.46875 455.175781 C 657.46875 462.519531 656.753906 469.566406 656.753906 476.550781 C 656.929688 483.539062 657.765625 490.523438 657.945312 497.925781 C 658.484375 519.664062 658.660156 545.816406 657.945312 566.058594 C 657.585938 580.449219 654.84375 589.644531 652.394531 600.6875 C 646.128906 606.601562 637.117188 601.824219 632.820312 595.554688 C 628.464844 571.609375 628.824219 539.902344 629 503.0625 C 629.359375 476.910156 630.554688 447.054688 627.808594 421.617188 C 627.449219 417.914062 627.09375 413.855469 626.613281 412.421875 C 624.527344 406.867188 620.347656 407.644531 616.589844 405.4375 C 615.214844 404.71875 613.304688 403.941406 611.574219 402.867188 C 610.203125 402.152344 607.398438 399.523438 607.039062 398.808594 C 604.296875 394.03125 603.398438 382.984375 602.683594 373.371094 C 601.96875 363.398438 601.667969 351.636719 603.398438 343.875 C 603.398438 343.515625 604.414062 343.15625 604.59375 342.738281 C 605.488281 338.679688 608.234375 331.695312 611.515625 329.484375 C 612.710938 328.351562 614.796875 328.769531 616.527344 327.992188 C 617.902344 327.273438 619.8125 325.425781 620.886719 325.425781 C 624.347656 324.707031 628.167969 326.558594 632.34375 326.558594 C 641.175781 326.558594 651.082031 326.199219 660.632812 326.558594 C 665.824219 326.917969 670.65625 327.273438 675.011719 328.050781 C 679.667969 328.410156 683.847656 326.917969 686.949219 330.617188 C 688.5 340.230469 689.574219 351.636719 688.859375 362.683594 Z M 690.171875 287.746094 C 688.5 299.089844 673.28125 309.003906 663.316406 301.480469 C 661.464844 299.925781 661.050781 299.628906 660.09375 297.597656 C 659.257812 296.046875 659.257812 293.957031 658.421875 291.867188 C 658.242188 291.628906 657.050781 291.269531 657.109375 291.03125 C 656.929688 290.492188 657.46875 289.476562 657.289062 288.941406 C 656.929688 288.402344 656.035156 287.566406 655.855469 287.03125 C 655.4375 284.878906 655.917969 282.3125 655.082031 280.402344 C 654.425781 278.789062 650.1875 272.28125 648.695312 270.96875 C 646.964844 269.714844 644.21875 269.414062 641.472656 268.28125 C 639.328125 267.207031 637.714844 265.117188 635.925781 264.578125 C 633.359375 263.742188 628.824219 264.640625 625.003906 264.222656 C 625.183594 264.222656 624.765625 262.488281 624.289062 263.265625 C 622.914062 265.117188 617.425781 262.847656 613.902344 263.027344 C 606.265625 263.980469 598.925781 269.058594 594.210938 276.761719 C 589.972656 284.105469 585.855469 300.046875 578.933594 303.449219 C 576.1875 304.703125 569.800781 304.644531 565.027344 303.332031 C 560.910156 301.71875 557.984375 300.046875 556.015625 293.539062 C 555.359375 288.34375 557.6875 284.164062 558.582031 279.625 C 559 276.699219 558.582031 274.074219 559.179688 271.207031 C 559.835938 267.683594 561.746094 260.339844 563.238281 253.949219 C 565.386719 243.738281 568.011719 233.351562 570.757812 224.035156 C 571.054688 222.484375 571.472656 219.914062 571.769531 218.363281 C 574.753906 208.453125 578.632812 201.40625 581.617188 189.820312 C 581.976562 187.671875 582.570312 185.820312 582.570312 185.222656 C 584.003906 180.089844 587.167969 172.148438 587.347656 164.265625 C 591.523438 156.683594 592.957031 149.457031 596.777344 141.394531 C 597.789062 139.484375 599.582031 137.875 600.414062 135.605469 C 601.3125 132.738281 600.953125 128.855469 601.847656 125.691406 C 602.683594 123.421875 603.9375 121.035156 604.773438 118.824219 C 607.519531 111.660156 610.144531 105.152344 613.546875 98.105469 C 614.558594 96.316406 615.933594 95.0625 617.183594 93.148438 C 619.75 88.074219 620.648438 82.582031 623.570312 81.207031 C 628.046875 79 641.773438 85.625 649.589844 91.65625 C 650.785156 92.613281 651.796875 94.703125 652.992188 95.957031 C 661.226562 103.957031 664.449219 109.152344 667.078125 122.648438 C 667.492188 124.558594 667.734375 126.347656 668.210938 128.261719 C 668.867188 131.960938 669.703125 138.230469 670.539062 142.710938 C 672.328125 151.84375 674.476562 159.128906 675.492188 167.550781 C 675.730469 169.28125 675.550781 171.25 675.789062 172.746094 C 676.328125 175.371094 678.117188 177.761719 678.652344 180.625 C 679.429688 184.867188 679.371094 189.761719 679.550781 194.238281 C 679.90625 199.015625 679.488281 202.957031 679.667969 207.375 C 679.90625 211.316406 681.398438 216.632812 681.996094 221.050781 C 682.414062 223.199219 681.457031 226.664062 681.9375 230.007812 C 682.292969 232.574219 683.546875 234.1875 684.265625 237.113281 C 684.679688 239.203125 684.5625 242.128906 684.980469 244.398438 C 686.710938 253.59375 687.128906 263.5625 688.800781 273.894531 C 689.574219 279.328125 690.710938 284.105469 690.171875 287.746094 Z M 700.734375 192.089844 C 700.855469 191.433594 702.882812 188.984375 703.71875 188.089844 C 705.089844 186.714844 707.0625 186.058594 708.3125 186.058594 C 713.148438 186.179688 723.054688 193.046875 729.140625 198 C 731.46875 201.046875 732.542969 204.273438 734.871094 207.316406 C 737.078125 222.484375 734.929688 235.378906 738.808594 252.757812 C 739.347656 255.503906 740.660156 258.488281 741.316406 261.773438 C 741.316406 261.773438 741.792969 265.296875 741.851562 265.894531 C 742.808594 270.132812 742.210938 276.222656 746.386719 278.132812 C 750.984375 280.28125 763.515625 277.117188 769.722656 278.96875 C 770.320312 279.089844 770.675781 279.863281 771.273438 280.105469 C 771.511719 280.34375 773.242188 280.402344 773.484375 280.523438 C 774.140625 280.941406 774.734375 282.015625 775.332031 282.851562 C 775.871094 283.566406 777.0625 284.523438 777.183594 285.121094 C 778.316406 287.628906 776.703125 290.492188 777.421875 293 C 769.363281 301.359375 740.660156 303.03125 721.144531 307.511719 C 718.996094 306.199219 716.132812 305.898438 714.101562 303.269531 C 712.492188 301.242188 711.773438 298.015625 711.058594 294.792969 C 707.957031 281.714844 707.777344 268.042969 705.570312 253.710938 C 703.480469 240.695312 702.882812 226.78125 701.449219 211.972656 C 700.617188 204.273438 699.660156 196.152344 700.734375 192.089844 Z M 787.269531 444.308594 C 782.851562 448.070312 778.613281 451.710938 774.199219 455.472656 C 772.648438 455.472656 771.035156 455.054688 769.605469 454.339844 C 768.351562 453.621094 766.621094 453.265625 766.140625 451.351562 C 765.664062 449.203125 766.441406 445.082031 766.140625 441.738281 C 765.84375 438.394531 764.710938 435.589844 764.410156 432.605469 C 763.933594 427.527344 765.1875 420.839844 763.335938 417.4375 C 754.027344 420.78125 744.121094 427.289062 736.363281 435.828125 C 733.976562 438.457031 731.171875 441.441406 729.558594 444.546875 C 727.351562 448.726562 726.097656 454.636719 724.964844 460.25 C 722.277344 472.429688 722.101562 483.417969 720.847656 498.585938 C 716.132812 506.527344 704.914062 517.15625 699.71875 517.15625 C 696.078125 505.390625 697.332031 486.882812 697.332031 469.386719 C 697.511719 454.039062 696.378906 438.875 696.855469 422.574219 C 697.035156 414.09375 698.289062 405.019531 698.585938 396.300781 C 698.886719 386.867188 697.929688 377.492188 698.585938 368.773438 C 699.242188 357.070312 701.867188 345.726562 703.183594 335.457031 C 709.03125 325.304688 724.785156 325.304688 729.976562 335.097656 C 731.050781 350.441406 729.320312 360.472656 729.976562 376.238281 C 730.277344 382.925781 730.632812 389.554688 733.4375 392.238281 C 734.214844 393.015625 734.871094 393.253906 736.304688 393.554688 C 737.078125 393.910156 738.511719 394.867188 739.167969 394.808594 C 741.375 394.628906 744.0625 392.597656 747.222656 391.226562 C 753.847656 388 757.308594 386.386719 761.546875 381.195312 C 762.5 380.117188 762.980469 379.28125 763.753906 377.910156 C 765.964844 374.328125 766.261719 373.191406 767.214844 367.757812 C 768.46875 360.953125 768.289062 351.875 768.945312 343.21875 C 769.902344 332.351562 769.902344 326.976562 778.734375 325.363281 C 784.402344 324.410156 791.683594 327.273438 793.058594 329.664062 C 794.132812 331.695312 794.011719 337.128906 794.132812 341.367188 C 795.382812 369.25 794.90625 399.585938 795.207031 427.769531 C 792.9375 433.261719 790.730469 438.8125 787.269531 444.308594 Z M 787.269531 444.308594 " fill-opacity="1" fill-rule="nonzero"/></g></svg>